<?xml version="1.0" encoding="UTF-8" standalone="no"?>
<!-- Generator: Adobe Illustrator 19.0.0, SVG Export Plug-In . SVG Version: 6.00 Build 0)  -->

<svg
   xmlns:dc="http://purl.org/dc/elements/1.1/"
   xmlns:cc="http://creativecommons.org/ns#"
   xmlns:rdf="http://www.w3.org/1999/02/22-rdf-syntax-ns#"
   xmlns:svg="http://www.w3.org/2000/svg"
   xmlns="http://www.w3.org/2000/svg"
   xmlns:sodipodi="http://sodipodi.sourceforge.net/DTD/sodipodi-0.dtd"
   xmlns:inkscape="http://www.inkscape.org/namespaces/inkscape"
   version="1.1"
   id="Layer_1"
   x="0px"
   y="0px"
   viewBox="0 0 511.99952 391.162"
   xml:space="preserve"
   sodipodi:docname="book-black.svg"
   width="511.99951"
   height="391.16199"
   inkscape:version="0.92.4 (5da689c313, 2019-01-14)"><metadata
   id="metadata4618"><rdf:RDF><cc:Work
       rdf:about=""><dc:format>image/svg+xml</dc:format><dc:type
         rdf:resource="http://purl.org/dc/dcmitype/StillImage" /><dc:title></dc:title></cc:Work></rdf:RDF></metadata><defs
   id="defs4616" /><sodipodi:namedview
   pagecolor="#ffffff"
   bordercolor="#666666"
   borderopacity="1"
   objecttolerance="10"
   gridtolerance="10"
   guidetolerance="10"
   inkscape:pageopacity="0"
   inkscape:pageshadow="2"
   inkscape:window-width="1842"
   inkscape:window-height="1057"
   id="namedview4614"
   showgrid="false"
   inkscape:zoom="1.0594733"
   inkscape:cx="157.73959"
   inkscape:cy="194.13639"
   inkscape:window-x="69"
   inkscape:window-y="-8"
   inkscape:window-maximized="1"
   inkscape:current-layer="Layer_1" />
<g
   id="g4581"
   transform="matrix(1.7239099,0,0,1.7239099,0,-60.419594)">
	<g
   id="g4579">
		<g
   id="g4577">
			<path
   d="m 45.432,35.049 c -0.008,0 -0.017,0 -0.025,0 -2.809,0 -5.451,1.095 -7.446,3.085 -2.017,2.012 -3.128,4.691 -3.128,7.543 v 159.365 c 0,5.844 4.773,10.61 10.641,10.625 24.738,0.059 66.184,5.215 94.776,35.136 V 84.023 c 0,-1.981 -0.506,-3.842 -1.461,-5.382 C 115.322,40.849 70.226,35.107 45.432,35.049 Z"
   id="path4569"
   inkscape:connector-curvature="0" />
			<path
   d="M 262.167,205.042 V 45.676 c 0,-2.852 -1.111,-5.531 -3.128,-7.543 -1.995,-1.99 -4.639,-3.085 -7.445,-3.085 -0.009,0 -0.018,0 -0.026,0 -24.793,0.059 -69.889,5.801 -93.357,43.593 -0.955,1.54 -1.46,3.401 -1.46,5.382 v 166.779 c 28.592,-29.921 70.038,-35.077 94.776,-35.136 5.867,-0.015 10.64,-4.781 10.64,-10.624 z"
   id="path4571"
   inkscape:connector-curvature="0" />
			<path
   d="m 286.373,71.801 h -7.706 v 133.241 c 0,14.921 -12.157,27.088 -27.101,27.125 -20.983,0.05 -55.581,4.153 -80.084,27.344 42.378,-10.376 87.052,-3.631 112.512,2.171 3.179,0.724 6.464,-0.024 9.011,-2.054 2.538,-2.025 3.994,-5.052 3.994,-8.301 V 82.427 C 297,76.568 292.232,71.801 286.373,71.801 Z"
   id="path4573"
   inkscape:connector-curvature="0" />
			<path
   d="M 18.332,205.042 V 71.801 H 10.626 C 4.768,71.801 0,76.568 0,82.427 v 168.897 c 0,3.25 1.456,6.276 3.994,8.301 2.545,2.029 5.827,2.78 9.011,2.054 25.46,-5.803 70.135,-12.547 112.511,-2.171 -24.502,-23.19 -59.1,-27.292 -80.083,-27.342 C 30.49,232.13 18.332,219.963 18.332,205.042 Z"
   id="path4575"
   inkscape:connector-curvature="0" />
		</g>
	</g>
</g>
<g
   id="g4583"
   transform="translate(107.50026,47.081016)">
</g>
<g
   id="g4585"
   transform="translate(107.50026,47.081016)">
</g>
<g
   id="g4587"
   transform="translate(107.50026,47.081016)">
</g>
<g
   id="g4589"
   transform="translate(107.50026,47.081016)">
</g>
<g
   id="g4591"
   transform="translate(107.50026,47.081016)">
</g>
<g
   id="g4593"
   transform="translate(107.50026,47.081016)">
</g>
<g
   id="g4595"
   transform="translate(107.50026,47.081016)">
</g>
<g
   id="g4597"
   transform="translate(107.50026,47.081016)">
</g>
<g
   id="g4599"
   transform="translate(107.50026,47.081016)">
</g>
<g
   id="g4601"
   transform="translate(107.50026,47.081016)">
</g>
<g
   id="g4603"
   transform="translate(107.50026,47.081016)">
</g>
<g
   id="g4605"
   transform="translate(107.50026,47.081016)">
</g>
<g
   id="g4607"
   transform="translate(107.50026,47.081016)">
</g>
<g
   id="g4609"
   transform="translate(107.50026,47.081016)">
</g>
<g
   id="g4611"
   transform="translate(107.50026,47.081016)">
</g>
</svg>